# https://github.com/mikedh/trimesh
v 0.50000000 1.00000000 0.50000000
v 0.50000000 1.25000000 0.50000000
v 0.50000000 1.25000000 0.75000000
v 0.50000000 1.00000000 0.75000000
v 0.25000000 1.00000000 0.50000000
v 0.25000000 1.00000000 0.75000000
v 0.25000000 1.25000000 0.75000000
v 0.25000000 1.25000000 0.50000000
v 0.25000000 1.00000000 1.00000000
v 0.25000000 1.25000000 1.00000000
v 0.50000000 1.25000000 1.00000000
v 0.50000000 1.00000000 1.00000000
v 0.50000000 1.25000000 1.25000000
v 0.50000000 1.00000000 1.25000000
v 0.25000000 1.00000000 1.25000000
v 0.25000000 1.25000000 1.25000000
v 0.75000000 1.00000000 0.75000000
v 0.75000000 1.25000000 0.75000000
v 0.75000000 1.25000000 1.00000000
v 0.75000000 1.00000000 1.00000000
f 1 2 3
f 1 3 4
f 5 6 7
f 5 7 8
f 8 7 3
f 8 3 2
f 5 1 4
f 5 4 6
f 5 8 2
f 5 2 1
f 6 9 10
f 6 10 7
f 7 10 11
f 7 11 3
f 6 4 12
f 6 12 9
f 12 11 13
f 12 13 14
f 9 15 16
f 9 16 10
f 10 16 13
f 10 13 11
f 9 12 14
f 9 14 15
f 15 14 13
f 15 13 16
f 17 18 19
f 17 19 20
f 3 11 19
f 3 19 18
f 4 17 20
f 4 20 12
f 12 20 19
f 12 19 11
f 4 3 18
f 4 18 17

