# https://github.com/mikedh/trimesh
v 0.00000000 1.00000000 0.00000000
v 0.00000000 1.00000000 0.25000000
v 0.00000000 1.25000000 0.25000000
v 0.00000000 1.25000000 0.00000000
v 0.25000000 1.25000000 0.25000000
v 0.25000000 1.25000000 0.00000000
v 0.25000000 1.00000000 0.00000000
v 0.25000000 1.00000000 0.25000000
v 0.00000000 1.00000000 0.50000000
v 0.00000000 1.25000000 0.50000000
v 0.25000000 1.25000000 0.50000000
v 0.25000000 1.00000000 0.50000000
v 0.50000000 1.00000000 0.00000000
v 0.50000000 1.25000000 0.00000000
v 0.50000000 1.25000000 0.25000000
v 0.50000000 1.00000000 0.25000000
v 0.50000000 1.25000000 0.50000000
v 0.50000000 1.00000000 0.50000000
f 1 2 3
f 1 3 4
f 4 3 5
f 4 5 6
f 1 7 8
f 1 8 2
f 1 4 6
f 1 6 7
f 2 9 10
f 2 10 3
f 3 10 11
f 3 11 5
f 2 8 12
f 2 12 9
f 9 12 11
f 9 11 10
f 13 14 15
f 13 15 16
f 6 5 15
f 6 15 14
f 7 13 16
f 7 16 8
f 7 6 14
f 7 14 13
f 16 15 17
f 16 17 18
f 5 11 17
f 5 17 15
f 8 16 18
f 8 18 12
f 12 18 17
f 12 17 11

