# https://github.com/mikedh/trimesh
v 0.25000000 0.50000000 0.50000000
v 0.25000000 0.75000000 0.50000000
v 0.25000000 0.75000000 0.75000000
v 0.25000000 0.50000000 0.75000000
v 0.00000000 0.50000000 0.50000000
v 0.00000000 0.50000000 0.75000000
v 0.00000000 0.75000000 0.75000000
v 0.00000000 0.75000000 0.50000000
v 0.00000000 1.00000000 0.75000000
v 0.00000000 1.00000000 0.50000000
v 0.25000000 1.00000000 0.75000000
v 0.25000000 1.00000000 0.50000000
v 0.25000000 1.25000000 0.50000000
v 0.25000000 1.25000000 0.75000000
v 0.00000000 1.25000000 0.75000000
v 0.00000000 1.25000000 0.50000000
v 0.50000000 0.75000000 0.50000000
v 0.50000000 1.00000000 0.50000000
v 0.50000000 1.00000000 0.75000000
v 0.50000000 0.75000000 0.75000000
f 1 2 3
f 1 3 4
f 5 6 7
f 5 7 8
f 5 1 4
f 5 4 6
f 6 4 3
f 6 3 7
f 5 8 2
f 5 2 1
f 8 7 9
f 8 9 10
f 7 3 11
f 7 11 9
f 8 10 12
f 8 12 2
f 12 13 14
f 12 14 11
f 10 9 15
f 10 15 16
f 16 15 14
f 16 14 13
f 9 11 14
f 9 14 15
f 10 16 13
f 10 13 12
f 17 18 19
f 17 19 20
f 12 11 19
f 12 19 18
f 2 17 20
f 2 20 3
f 3 20 19
f 3 19 11
f 2 12 18
f 2 18 17

