# https://github.com/mikedh/trimesh
v 1.00000000 0.75000000 0.00000000
v 1.00000000 1.00000000 0.00000000
v 1.00000000 1.00000000 0.25000000
v 1.00000000 0.75000000 0.25000000
v 0.75000000 0.75000000 0.00000000
v 0.75000000 0.75000000 0.25000000
v 0.75000000 1.00000000 0.25000000
v 0.75000000 1.00000000 0.00000000
v 1.00000000 1.25000000 0.00000000
v 1.00000000 1.25000000 0.25000000
v 0.75000000 1.25000000 0.25000000
v 0.75000000 1.25000000 0.00000000
v 1.00000000 1.50000000 0.00000000
v 1.00000000 1.50000000 0.25000000
v 0.75000000 1.50000000 0.25000000
v 0.75000000 1.50000000 0.00000000
v 1.00000000 1.75000000 0.00000000
v 1.00000000 1.75000000 0.25000000
v 0.75000000 1.75000000 0.25000000
v 0.75000000 1.75000000 0.00000000
f 1 2 3
f 1 3 4
f 5 6 7
f 5 7 8
f 5 1 4
f 5 4 6
f 6 4 3
f 6 3 7
f 5 8 2
f 5 2 1
f 2 9 10
f 2 10 3
f 8 7 11
f 8 11 12
f 7 3 10
f 7 10 11
f 8 12 9
f 8 9 2
f 9 13 14
f 9 14 10
f 12 11 15
f 12 15 16
f 11 10 14
f 11 14 15
f 12 16 13
f 12 13 9
f 13 17 18
f 13 18 14
f 16 15 19
f 16 19 20
f 20 19 18
f 20 18 17
f 15 14 18
f 15 18 19
f 16 20 17
f 16 17 13

