# https://github.com/mikedh/trimesh
v 0.50000000 1.00000000 2.75000000
v 0.50000000 1.00000000 3.00000000
v 0.50000000 1.25000000 3.00000000
v 0.50000000 1.25000000 2.75000000
v 0.75000000 1.25000000 3.00000000
v 0.75000000 1.25000000 2.75000000
v 0.75000000 1.00000000 2.75000000
v 0.75000000 1.00000000 3.00000000
v 0.75000000 0.75000000 2.75000000
v 0.75000000 0.75000000 3.00000000
v 1.00000000 0.75000000 2.75000000
v 1.00000000 0.75000000 3.00000000
v 1.00000000 1.00000000 3.00000000
v 1.00000000 1.00000000 2.75000000
v 1.00000000 1.25000000 2.75000000
v 1.00000000 1.25000000 3.00000000
v 1.25000000 0.75000000 2.75000000
v 1.25000000 1.00000000 2.75000000
v 1.25000000 1.00000000 3.00000000
v 1.25000000 0.75000000 3.00000000
f 1 2 3
f 1 3 4
f 4 3 5
f 4 5 6
f 1 7 8
f 1 8 2
f 2 8 5
f 2 5 3
f 1 4 6
f 1 6 7
f 9 10 8
f 9 8 7
f 9 11 12
f 9 12 10
f 10 12 13
f 10 13 8
f 9 7 14
f 9 14 11
f 14 15 16
f 14 16 13
f 6 5 16
f 6 16 15
f 8 13 16
f 8 16 5
f 7 6 15
f 7 15 14
f 17 18 19
f 17 19 20
f 14 13 19
f 14 19 18
f 11 17 20
f 11 20 12
f 12 20 19
f 12 19 13
f 11 14 18
f 11 18 17

