# https://github.com/mikedh/trimesh
v 1.25000000 0.75000000 0.00000000
v 1.25000000 1.00000000 0.00000000
v 1.25000000 1.00000000 0.25000000
v 1.25000000 0.75000000 0.25000000
v 1.00000000 0.75000000 0.00000000
v 1.00000000 0.75000000 0.25000000
v 1.00000000 1.00000000 0.25000000
v 1.00000000 1.00000000 0.00000000
v 1.25000000 1.25000000 0.00000000
v 1.25000000 1.25000000 0.25000000
v 1.00000000 1.25000000 0.25000000
v 1.00000000 1.25000000 0.00000000
v 1.00000000 1.50000000 0.25000000
v 1.00000000 1.50000000 0.00000000
v 1.25000000 1.50000000 0.25000000
v 1.25000000 1.50000000 0.00000000
v 1.50000000 1.25000000 0.00000000
v 1.50000000 1.50000000 0.00000000
v 1.50000000 1.50000000 0.25000000
v 1.50000000 1.25000000 0.25000000
f 1 2 3
f 1 3 4
f 5 6 7
f 5 7 8
f 5 1 4
f 5 4 6
f 6 4 3
f 6 3 7
f 5 8 2
f 5 2 1
f 2 9 10
f 2 10 3
f 8 7 11
f 8 11 12
f 7 3 10
f 7 10 11
f 8 12 9
f 8 9 2
f 12 11 13
f 12 13 14
f 14 13 15
f 14 15 16
f 11 10 15
f 11 15 13
f 12 14 16
f 12 16 9
f 17 18 19
f 17 19 20
f 16 15 19
f 16 19 18
f 9 17 20
f 9 20 10
f 10 20 19
f 10 19 15
f 9 16 18
f 9 18 17

