# https://github.com/mikedh/trimesh
v 0.25000000 0.50000000 1.75000000
v 0.25000000 0.50000000 2.00000000
v 0.25000000 0.75000000 2.00000000
v 0.25000000 0.75000000 1.75000000
v 0.50000000 0.75000000 2.00000000
v 0.50000000 0.75000000 1.75000000
v 0.50000000 0.50000000 1.75000000
v 0.50000000 0.50000000 2.00000000
v 0.50000000 0.50000000 1.50000000
v 0.50000000 0.75000000 1.50000000
v 0.75000000 0.75000000 1.75000000
v 0.75000000 0.75000000 1.50000000
v 0.75000000 0.50000000 1.50000000
v 0.75000000 0.50000000 1.75000000
v 0.75000000 0.75000000 2.00000000
v 0.75000000 0.50000000 2.00000000
v 1.00000000 0.50000000 1.50000000
v 1.00000000 0.75000000 1.50000000
v 1.00000000 0.75000000 1.75000000
v 1.00000000 0.50000000 1.75000000
f 1 2 3
f 1 3 4
f 4 3 5
f 4 5 6
f 1 7 8
f 1 8 2
f 2 8 5
f 2 5 3
f 1 4 6
f 1 6 7
f 9 7 6
f 9 6 10
f 10 6 11
f 10 11 12
f 9 13 14
f 9 14 7
f 9 10 12
f 9 12 13
f 14 11 15
f 14 15 16
f 6 5 15
f 6 15 11
f 7 14 16
f 7 16 8
f 8 16 15
f 8 15 5
f 17 18 19
f 17 19 20
f 12 11 19
f 12 19 18
f 13 17 20
f 13 20 14
f 14 20 19
f 14 19 11
f 13 12 18
f 13 18 17

