# https://github.com/mikedh/trimesh
v 0.25000000 0.25000000 1.25000000
v 0.25000000 0.25000000 1.50000000
v 0.25000000 0.50000000 1.50000000
v 0.25000000 0.50000000 1.25000000
v 0.50000000 0.25000000 1.25000000
v 0.50000000 0.25000000 1.50000000
v 0.50000000 0.50000000 1.50000000
v 0.50000000 0.50000000 1.25000000
v 0.25000000 0.75000000 1.50000000
v 0.25000000 0.75000000 1.25000000
v 0.50000000 0.75000000 1.50000000
v 0.50000000 0.75000000 1.25000000
v 0.75000000 0.25000000 1.25000000
v 0.75000000 0.50000000 1.25000000
v 0.75000000 0.50000000 1.50000000
v 0.75000000 0.25000000 1.50000000
v 0.75000000 0.75000000 1.25000000
v 0.75000000 0.75000000 1.50000000
f 1 2 3
f 1 3 4
f 1 5 6
f 1 6 2
f 2 6 7
f 2 7 3
f 1 4 8
f 1 8 5
f 4 3 9
f 4 9 10
f 10 9 11
f 10 11 12
f 3 7 11
f 3 11 9
f 4 10 12
f 4 12 8
f 13 14 15
f 13 15 16
f 5 13 16
f 5 16 6
f 6 16 15
f 6 15 7
f 5 8 14
f 5 14 13
f 14 17 18
f 14 18 15
f 12 11 18
f 12 18 17
f 7 15 18
f 7 18 11
f 8 12 17
f 8 17 14

