# https://github.com/mikedh/trimesh
v 0.25000000 0.25000000 0.75000000
v 0.25000000 0.25000000 1.00000000
v 0.25000000 0.50000000 1.00000000
v 0.25000000 0.50000000 0.75000000
v 0.50000000 0.50000000 1.00000000
v 0.50000000 0.50000000 0.75000000
v 0.50000000 0.25000000 0.75000000
v 0.50000000 0.25000000 1.00000000
v 0.50000000 0.50000000 1.25000000
v 0.50000000 0.25000000 1.25000000
v 0.25000000 0.25000000 1.25000000
v 0.25000000 0.50000000 1.25000000
v 0.75000000 0.25000000 0.50000000
v 0.75000000 0.50000000 0.50000000
v 0.75000000 0.50000000 0.75000000
v 0.75000000 0.25000000 0.75000000
v 0.50000000 0.25000000 0.50000000
v 0.50000000 0.50000000 0.50000000
v 0.75000000 0.50000000 1.00000000
v 0.75000000 0.25000000 1.00000000
f 1 2 3
f 1 3 4
f 4 3 5
f 4 5 6
f 1 7 8
f 1 8 2
f 1 4 6
f 1 6 7
f 8 5 9
f 8 9 10
f 2 11 12
f 2 12 3
f 3 12 9
f 3 9 5
f 2 8 10
f 2 10 11
f 11 10 9
f 11 9 12
f 13 14 15
f 13 15 16
f 17 7 6
f 17 6 18
f 18 6 15
f 18 15 14
f 17 13 16
f 17 16 7
f 17 18 14
f 17 14 13
f 16 15 19
f 16 19 20
f 6 5 19
f 6 19 15
f 7 16 20
f 7 20 8
f 8 20 19
f 8 19 5

