# https://github.com/mikedh/trimesh
v 0.75000000 0.00000000 0.00000000
v 0.75000000 0.25000000 0.00000000
v 0.75000000 0.25000000 0.25000000
v 0.75000000 0.00000000 0.25000000
v 0.50000000 0.00000000 0.00000000
v 0.50000000 0.00000000 0.25000000
v 0.50000000 0.25000000 0.25000000
v 0.50000000 0.25000000 0.00000000
v 0.75000000 0.50000000 0.00000000
v 0.75000000 0.50000000 0.25000000
v 0.50000000 0.50000000 0.25000000
v 0.50000000 0.50000000 0.00000000
v 0.75000000 0.50000000 0.50000000
v 0.75000000 0.25000000 0.50000000
v 0.50000000 0.25000000 0.50000000
v 0.50000000 0.50000000 0.50000000
v 0.75000000 0.75000000 0.00000000
v 0.75000000 0.75000000 0.25000000
v 0.50000000 0.75000000 0.25000000
v 0.50000000 0.75000000 0.00000000
f 1 2 3
f 1 3 4
f 5 6 7
f 5 7 8
f 5 1 4
f 5 4 6
f 6 4 3
f 6 3 7
f 5 8 2
f 5 2 1
f 2 9 10
f 2 10 3
f 8 7 11
f 8 11 12
f 8 12 9
f 8 9 2
f 3 10 13
f 3 13 14
f 7 15 16
f 7 16 11
f 11 16 13
f 11 13 10
f 7 3 14
f 7 14 15
f 15 14 13
f 15 13 16
f 9 17 18
f 9 18 10
f 12 11 19
f 12 19 20
f 20 19 18
f 20 18 17
f 11 10 18
f 11 18 19
f 12 20 17
f 12 17 9

