# https://github.com/mikedh/trimesh
v 0.25000000 0.00000000 0.25000000
v 0.25000000 0.00000000 0.50000000
v 0.25000000 0.25000000 0.50000000
v 0.25000000 0.25000000 0.25000000
v 0.50000000 0.25000000 0.50000000
v 0.50000000 0.25000000 0.25000000
v 0.50000000 0.00000000 0.25000000
v 0.50000000 0.00000000 0.50000000
v 0.75000000 0.25000000 0.50000000
v 0.75000000 0.25000000 0.25000000
v 0.75000000 0.00000000 0.25000000
v 0.75000000 0.00000000 0.50000000
v 1.00000000 0.25000000 0.50000000
v 1.00000000 0.25000000 0.25000000
v 1.00000000 0.00000000 0.25000000
v 1.00000000 0.00000000 0.50000000
v 1.25000000 0.00000000 0.25000000
v 1.25000000 0.25000000 0.25000000
v 1.25000000 0.25000000 0.50000000
v 1.25000000 0.00000000 0.50000000
f 1 2 3
f 1 3 4
f 4 3 5
f 4 5 6
f 1 7 8
f 1 8 2
f 2 8 5
f 2 5 3
f 1 4 6
f 1 6 7
f 6 5 9
f 6 9 10
f 7 11 12
f 7 12 8
f 8 12 9
f 8 9 5
f 7 6 10
f 7 10 11
f 10 9 13
f 10 13 14
f 11 15 16
f 11 16 12
f 12 16 13
f 12 13 9
f 11 10 14
f 11 14 15
f 17 18 19
f 17 19 20
f 14 13 19
f 14 19 18
f 15 17 20
f 15 20 16
f 16 20 19
f 16 19 13
f 15 14 18
f 15 18 17

