# https://github.com/mikedh/trimesh
v 0.50000000 0.00000000 0.50000000
v 0.50000000 0.00000000 0.75000000
v 0.50000000 0.25000000 0.75000000
v 0.50000000 0.25000000 0.50000000
v 0.75000000 0.25000000 0.75000000
v 0.75000000 0.25000000 0.50000000
v 0.75000000 0.00000000 0.50000000
v 0.75000000 0.00000000 0.75000000
v 1.00000000 0.00000000 0.50000000
v 1.00000000 0.00000000 0.75000000
v 1.00000000 0.25000000 0.75000000
v 1.00000000 0.25000000 0.50000000
v 1.00000000 0.50000000 0.50000000
v 1.00000000 0.50000000 0.75000000
v 0.75000000 0.50000000 0.75000000
v 0.75000000 0.50000000 0.50000000
v 1.25000000 0.00000000 0.50000000
v 1.25000000 0.25000000 0.50000000
v 1.25000000 0.25000000 0.75000000
v 1.25000000 0.00000000 0.75000000
f 1 2 3
f 1 3 4
f 4 3 5
f 4 5 6
f 1 7 8
f 1 8 2
f 2 8 5
f 2 5 3
f 1 4 6
f 1 6 7
f 7 9 10
f 7 10 8
f 8 10 11
f 8 11 5
f 7 6 12
f 7 12 9
f 12 13 14
f 12 14 11
f 6 5 15
f 6 15 16
f 16 15 14
f 16 14 13
f 5 11 14
f 5 14 15
f 6 16 13
f 6 13 12
f 17 18 19
f 17 19 20
f 12 11 19
f 12 19 18
f 9 17 20
f 9 20 10
f 10 20 19
f 10 19 11
f 9 12 18
f 9 18 17

