# https://github.com/mikedh/trimesh
v 0.75000000 0.00000000 0.00000000
v 0.75000000 0.00000000 0.25000000
v 0.75000000 0.25000000 0.25000000
v 0.75000000 0.25000000 0.00000000
v 1.00000000 0.00000000 0.00000000
v 1.00000000 0.00000000 0.25000000
v 1.00000000 0.25000000 0.25000000
v 1.00000000 0.25000000 0.00000000
v 1.00000000 0.50000000 0.00000000
v 1.00000000 0.50000000 0.25000000
v 0.75000000 0.50000000 0.25000000
v 0.75000000 0.50000000 0.00000000
v 1.00000000 0.75000000 0.00000000
v 1.00000000 0.75000000 0.25000000
v 0.75000000 0.75000000 0.25000000
v 0.75000000 0.75000000 0.00000000
v 1.25000000 0.00000000 0.00000000
v 1.25000000 0.25000000 0.00000000
v 1.25000000 0.25000000 0.25000000
v 1.25000000 0.00000000 0.25000000
f 1 2 3
f 1 3 4
f 1 5 6
f 1 6 2
f 2 6 7
f 2 7 3
f 1 4 8
f 1 8 5
f 8 9 10
f 8 10 7
f 4 3 11
f 4 11 12
f 3 7 10
f 3 10 11
f 4 12 9
f 4 9 8
f 9 13 14
f 9 14 10
f 12 11 15
f 12 15 16
f 16 15 14
f 16 14 13
f 11 10 14
f 11 14 15
f 12 16 13
f 12 13 9
f 17 18 19
f 17 19 20
f 8 7 19
f 8 19 18
f 5 17 20
f 5 20 6
f 6 20 19
f 6 19 7
f 5 8 18
f 5 18 17

