# https://github.com/mikedh/trimesh
v 0.75000000 0.25000000 1.25000000
v 0.75000000 0.25000000 1.50000000
v 0.75000000 0.50000000 1.50000000
v 0.75000000 0.50000000 1.25000000
v 1.00000000 0.50000000 1.50000000
v 1.00000000 0.50000000 1.25000000
v 1.00000000 0.25000000 1.25000000
v 1.00000000 0.25000000 1.50000000
v 1.25000000 0.25000000 1.25000000
v 1.25000000 0.50000000 1.25000000
v 1.25000000 0.50000000 1.50000000
v 1.25000000 0.25000000 1.50000000
v 1.00000000 0.75000000 1.50000000
v 1.00000000 0.75000000 1.25000000
v 1.25000000 0.75000000 1.50000000
v 1.25000000 0.75000000 1.25000000
v 1.50000000 0.50000000 1.25000000
v 1.50000000 0.75000000 1.25000000
v 1.50000000 0.75000000 1.50000000
v 1.50000000 0.50000000 1.50000000
f 1 2 3
f 1 3 4
f 4 3 5
f 4 5 6
f 1 7 8
f 1 8 2
f 2 8 5
f 2 5 3
f 1 4 6
f 1 6 7
f 9 10 11
f 9 11 12
f 7 9 12
f 7 12 8
f 8 12 11
f 8 11 5
f 7 6 10
f 7 10 9
f 6 5 13
f 6 13 14
f 14 13 15
f 14 15 16
f 5 11 15
f 5 15 13
f 6 14 16
f 6 16 10
f 17 18 19
f 17 19 20
f 16 15 19
f 16 19 18
f 10 17 20
f 10 20 11
f 11 20 19
f 11 19 15
f 10 16 18
f 10 18 17

