# https://github.com/mikedh/trimesh
v 1.25000000 0.25000000 1.50000000
v 1.25000000 0.50000000 1.50000000
v 1.25000000 0.50000000 1.75000000
v 1.25000000 0.25000000 1.75000000
v 1.00000000 0.25000000 1.50000000
v 1.00000000 0.25000000 1.75000000
v 1.00000000 0.50000000 1.75000000
v 1.00000000 0.50000000 1.50000000
v 1.25000000 0.75000000 1.50000000
v 1.25000000 0.75000000 1.75000000
v 1.00000000 0.75000000 1.75000000
v 1.00000000 0.75000000 1.50000000
v 1.25000000 0.75000000 1.25000000
v 1.25000000 1.00000000 1.25000000
v 1.25000000 1.00000000 1.50000000
v 1.00000000 0.75000000 1.25000000
v 1.00000000 1.00000000 1.50000000
v 1.00000000 1.00000000 1.25000000
v 1.25000000 1.00000000 1.75000000
v 1.00000000 1.00000000 1.75000000
f 1 2 3
f 1 3 4
f 5 6 7
f 5 7 8
f 5 1 4
f 5 4 6
f 6 4 3
f 6 3 7
f 5 8 2
f 5 2 1
f 2 9 10
f 2 10 3
f 8 7 11
f 8 11 12
f 7 3 10
f 7 10 11
f 8 12 9
f 8 9 2
f 13 14 15
f 13 15 9
f 16 12 17
f 16 17 18
f 18 17 15
f 18 15 14
f 16 13 9
f 16 9 12
f 16 18 14
f 16 14 13
f 9 15 19
f 9 19 10
f 12 11 20
f 12 20 17
f 17 20 19
f 17 19 15
f 11 10 19
f 11 19 20

