# https://github.com/mikedh/trimesh
v 0.75000000 0.50000000 2.75000000
v 0.75000000 0.75000000 2.75000000
v 0.75000000 0.75000000 3.00000000
v 0.75000000 0.50000000 3.00000000
v 0.50000000 0.50000000 2.75000000
v 0.50000000 0.50000000 3.00000000
v 0.50000000 0.75000000 3.00000000
v 0.50000000 0.75000000 2.75000000
v 0.75000000 0.75000000 2.25000000
v 0.75000000 1.00000000 2.25000000
v 0.75000000 1.00000000 2.50000000
v 0.75000000 0.75000000 2.50000000
v 0.50000000 0.75000000 2.25000000
v 0.50000000 0.75000000 2.50000000
v 0.50000000 1.00000000 2.50000000
v 0.50000000 1.00000000 2.25000000
v 0.75000000 1.00000000 2.75000000
v 0.50000000 1.00000000 2.75000000
v 0.75000000 1.00000000 3.00000000
v 0.50000000 1.00000000 3.00000000
f 1 2 3
f 1 3 4
f 5 6 7
f 5 7 8
f 5 1 4
f 5 4 6
f 6 4 3
f 6 3 7
f 5 8 2
f 5 2 1
f 9 10 11
f 9 11 12
f 13 14 15
f 13 15 16
f 16 15 11
f 16 11 10
f 13 9 12
f 13 12 14
f 13 16 10
f 13 10 9
f 12 11 17
f 12 17 2
f 14 8 18
f 14 18 15
f 15 18 17
f 15 17 11
f 14 12 2
f 14 2 8
f 2 17 19
f 2 19 3
f 8 7 20
f 8 20 18
f 18 20 19
f 18 19 17
f 7 3 19
f 7 19 20

