# https://github.com/mikedh/trimesh
v 1.50000000 0.50000000 0.25000000
v 1.50000000 0.75000000 0.25000000
v 1.50000000 0.75000000 0.50000000
v 1.50000000 0.50000000 0.50000000
v 1.25000000 0.50000000 0.25000000
v 1.25000000 0.50000000 0.50000000
v 1.25000000 0.75000000 0.50000000
v 1.25000000 0.75000000 0.25000000
v 1.50000000 0.75000000 0.75000000
v 1.50000000 0.50000000 0.75000000
v 1.25000000 0.50000000 0.75000000
v 1.25000000 0.75000000 0.75000000
v 1.50000000 1.00000000 0.25000000
v 1.50000000 1.00000000 0.50000000
v 1.25000000 1.00000000 0.50000000
v 1.25000000 1.00000000 0.25000000
v 1.50000000 1.25000000 0.25000000
v 1.50000000 1.25000000 0.50000000
v 1.25000000 1.25000000 0.50000000
v 1.25000000 1.25000000 0.25000000
f 1 2 3
f 1 3 4
f 5 6 7
f 5 7 8
f 5 1 4
f 5 4 6
f 5 8 2
f 5 2 1
f 4 3 9
f 4 9 10
f 6 11 12
f 6 12 7
f 7 12 9
f 7 9 3
f 6 4 10
f 6 10 11
f 11 10 9
f 11 9 12
f 2 13 14
f 2 14 3
f 8 7 15
f 8 15 16
f 7 3 14
f 7 14 15
f 8 16 13
f 8 13 2
f 13 17 18
f 13 18 14
f 16 15 19
f 16 19 20
f 20 19 18
f 20 18 17
f 15 14 18
f 15 18 19
f 16 20 17
f 16 17 13

