# https://github.com/mikedh/trimesh
v 0.75000000 1.00000000 1.00000000
v 0.75000000 1.00000000 1.25000000
v 0.75000000 1.25000000 1.25000000
v 0.75000000 1.25000000 1.00000000
v 1.00000000 1.25000000 1.25000000
v 1.00000000 1.25000000 1.00000000
v 1.00000000 1.00000000 1.00000000
v 1.00000000 1.00000000 1.25000000
v 1.25000000 0.75000000 1.00000000
v 1.25000000 1.00000000 1.00000000
v 1.25000000 1.00000000 1.25000000
v 1.25000000 0.75000000 1.25000000
v 1.00000000 0.75000000 1.00000000
v 1.00000000 0.75000000 1.25000000
v 1.25000000 1.25000000 1.00000000
v 1.25000000 1.25000000 1.25000000
v 1.25000000 1.50000000 1.00000000
v 1.25000000 1.50000000 1.25000000
v 1.00000000 1.50000000 1.25000000
v 1.00000000 1.50000000 1.00000000
f 1 2 3
f 1 3 4
f 4 3 5
f 4 5 6
f 1 7 8
f 1 8 2
f 2 8 5
f 2 5 3
f 1 4 6
f 1 6 7
f 9 10 11
f 9 11 12
f 13 14 8
f 13 8 7
f 13 9 12
f 13 12 14
f 14 12 11
f 14 11 8
f 13 7 10
f 13 10 9
f 10 15 16
f 10 16 11
f 8 11 16
f 8 16 5
f 7 6 15
f 7 15 10
f 15 17 18
f 15 18 16
f 6 5 19
f 6 19 20
f 20 19 18
f 20 18 17
f 5 16 18
f 5 18 19
f 6 20 17
f 6 17 15

