# https://github.com/mikedh/trimesh
v 1.25000000 1.00000000 0.50000000
v 1.25000000 1.25000000 0.50000000
v 1.25000000 1.25000000 0.75000000
v 1.25000000 1.00000000 0.75000000
v 1.00000000 1.00000000 0.50000000
v 1.00000000 1.00000000 0.75000000
v 1.00000000 1.25000000 0.75000000
v 1.00000000 1.25000000 0.50000000
v 1.25000000 1.25000000 1.00000000
v 1.25000000 1.00000000 1.00000000
v 1.00000000 1.00000000 1.00000000
v 1.00000000 1.25000000 1.00000000
v 1.25000000 1.50000000 0.50000000
v 1.25000000 1.50000000 0.75000000
v 1.00000000 1.50000000 0.75000000
v 1.00000000 1.50000000 0.50000000
v 1.25000000 1.50000000 1.00000000
v 1.00000000 1.50000000 1.00000000
f 1 2 3
f 1 3 4
f 5 6 7
f 5 7 8
f 5 1 4
f 5 4 6
f 5 8 2
f 5 2 1
f 4 3 9
f 4 9 10
f 6 11 12
f 6 12 7
f 6 4 10
f 6 10 11
f 11 10 9
f 11 9 12
f 2 13 14
f 2 14 3
f 8 7 15
f 8 15 16
f 16 15 14
f 16 14 13
f 8 16 13
f 8 13 2
f 3 14 17
f 3 17 9
f 7 12 18
f 7 18 15
f 15 18 17
f 15 17 14
f 12 9 17
f 12 17 18

