# https://github.com/mikedh/trimesh
v 0.75000000 1.00000000 1.00000000
v 0.75000000 1.25000000 1.00000000
v 0.75000000 1.25000000 1.25000000
v 0.75000000 1.00000000 1.25000000
v 0.50000000 1.00000000 1.00000000
v 0.50000000 1.00000000 1.25000000
v 0.50000000 1.25000000 1.25000000
v 0.50000000 1.25000000 1.00000000
v 0.50000000 1.00000000 1.50000000
v 0.50000000 1.25000000 1.50000000
v 0.75000000 1.25000000 1.50000000
v 0.75000000 1.00000000 1.50000000
v 1.00000000 1.00000000 1.25000000
v 1.00000000 1.25000000 1.25000000
v 1.00000000 1.25000000 1.50000000
v 1.00000000 1.00000000 1.50000000
v 1.00000000 1.25000000 1.75000000
v 1.00000000 1.00000000 1.75000000
v 0.75000000 1.00000000 1.75000000
v 0.75000000 1.25000000 1.75000000
f 1 2 3
f 1 3 4
f 5 6 7
f 5 7 8
f 8 7 3
f 8 3 2
f 5 1 4
f 5 4 6
f 5 8 2
f 5 2 1
f 6 9 10
f 6 10 7
f 7 10 11
f 7 11 3
f 6 4 12
f 6 12 9
f 9 12 11
f 9 11 10
f 13 14 15
f 13 15 16
f 3 11 15
f 3 15 14
f 4 13 16
f 4 16 12
f 4 3 14
f 4 14 13
f 16 15 17
f 16 17 18
f 12 19 20
f 12 20 11
f 11 20 17
f 11 17 15
f 12 16 18
f 12 18 19
f 19 18 17
f 19 17 20

